# xmcd
# Copyright (c) 1998 CDDB Inc.
#
# Track frame offsets:
#	150
#	14613
#	29975
#	45800
#	60950
#	76950
#	95825
#	112300
#	132463
#	143600
#	157925
#	177138
#	186450
#	198225
#
# Disc length: 2884 seconds
#
# Revision: 1
# Processed by: cddbd v1.4b41PL1 Copyright (c) Steve Scherf et al.
# Submitted via: audiograbber 1.70
#
DISCID=c00b420e
DTITLE=Timmerhorst - Wochenend
DYEAR=1900
DGENRE=
TTITLE0=Wuch to Enn
TTITLE1=Hochseeangeli
TTITLE2=De Dor (de Kasseerer)
TTITLE3=De Schuurlued
TTITLE4=Allens weg foer Grog
TTITLE5=Strippen
TTITLE6=Drink mi to
TTITLE7=Danz op de Deel
TTITLE8=Bubble gum
TTITLE9=Pott mit Bohnen
TTITLE10=De Muellmann
TTITLE11=De Strandgendarm
TTITLE12=Huet Abend schall he wedder bi
TTITLE13=Wi moet gahn
EXTD=
EXTT0=
EXTT1=
EXTT2=
EXTT3=
EXTT4=
EXTT5=
EXTT6=
EXTT7=
EXTT8=
EXTT9=
EXTT10=
EXTT11=
EXTT12=
EXTT13=
PLAYORDER=
